<svg id="visual" viewBox="0 0 1980 1020" width="1980" height="1020" xmlns="http://www.w3.org/2000/svg" xmlns:xlink="http://www.w3.org/1999/xlink" version="1.1"><g stroke-width="1" stroke-linejoin="bevel"><path d="M915 410L1110 402L1081 238Z" fill="#032741" stroke="#032741"></path><path d="M1081 238L890 192L915 410Z" fill="#01375c" stroke="#01375c"></path><path d="M915 410L1102 578L1110 402Z" fill="#022f4e" stroke="#022f4e"></path><path d="M1102 578L1307 412L1110 402Z" fill="#044778" stroke="#044778"></path><path d="M1110 402L1307 412L1081 238Z" fill="#032741" stroke="#032741"></path><path d="M890 192L690 395L915 410Z" fill="#042034" stroke="#042034"></path><path d="M915 410L852 623L1102 578Z" fill="#044778" stroke="#044778"></path><path d="M690 395L852 623L915 410Z" fill="#115795" stroke="#115795"></path><path d="M1307 412L1322 172L1081 238Z" fill="#032741" stroke="#032741"></path><path d="M1081 238L895 0L890 192Z" fill="#115795" stroke="#115795"></path><path d="M1136 0L895 0L1081 238Z" fill="#042034" stroke="#042034"></path><path d="M890 192L627 174L690 395Z" fill="#044778" stroke="#044778"></path><path d="M1322 172L1136 0L1081 238Z" fill="#013f6a" stroke="#013f6a"></path><path d="M1102 578L1299 615L1307 412Z" fill="#013f6a" stroke="#013f6a"></path><path d="M1307 412L1508 211L1322 172Z" fill="#115795" stroke="#115795"></path><path d="M1283 782L1299 615L1102 578Z" fill="#094f86" stroke="#094f86"></path><path d="M654 0L627 174L890 192Z" fill="#00101c" stroke="#00101c"></path><path d="M1322 172L1322 0L1136 0Z" fill="#00101c" stroke="#00101c"></path><path d="M463 446L663 642L690 395Z" fill="#041828" stroke="#041828"></path><path d="M690 395L663 642L852 623Z" fill="#044778" stroke="#044778"></path><path d="M852 623L1075 826L1102 578Z" fill="#041828" stroke="#041828"></path><path d="M895 0L654 0L890 192Z" fill="#094f86" stroke="#094f86"></path><path d="M867 839L1075 826L852 623Z" fill="#042034" stroke="#042034"></path><path d="M1573 424L1508 211L1307 412Z" fill="#1a5fa4" stroke="#1a5fa4"></path><path d="M1322 172L1508 211L1322 0Z" fill="#00101c" stroke="#00101c"></path><path d="M663 642L867 839L852 623Z" fill="#032741" stroke="#032741"></path><path d="M1075 826L1283 782L1102 578Z" fill="#013f6a" stroke="#013f6a"></path><path d="M1299 615L1573 424L1307 412Z" fill="#042034" stroke="#042034"></path><path d="M454 224L463 446L690 395Z" fill="#115795" stroke="#115795"></path><path d="M454 224L690 395L627 174Z" fill="#022f4e" stroke="#022f4e"></path><path d="M405 0L454 224L627 174Z" fill="#042034" stroke="#042034"></path><path d="M1555 637L1573 424L1299 615Z" fill="#022f4e" stroke="#022f4e"></path><path d="M1283 782L1555 637L1299 615Z" fill="#115795" stroke="#115795"></path><path d="M663 642L625 839L867 839Z" fill="#094f86" stroke="#094f86"></path><path d="M475 839L625 839L663 642Z" fill="#115795" stroke="#115795"></path><path d="M232 602L436 631L463 446Z" fill="#032741" stroke="#032741"></path><path d="M463 446L436 631L663 642Z" fill="#042034" stroke="#042034"></path><path d="M1723 225L1570 0L1508 211Z" fill="#094f86" stroke="#094f86"></path><path d="M1508 211L1570 0L1322 0Z" fill="#041828" stroke="#041828"></path><path d="M1075 826L1302 1020L1283 782Z" fill="#094f86" stroke="#094f86"></path><path d="M1283 782L1536 846L1555 637Z" fill="#115795" stroke="#115795"></path><path d="M883 1020L1082 1020L1075 826Z" fill="#032741" stroke="#032741"></path><path d="M883 1020L1075 826L867 839Z" fill="#115795" stroke="#115795"></path><path d="M654 0L405 0L627 174Z" fill="#094f86" stroke="#094f86"></path><path d="M454 224L211 443L463 446Z" fill="#032741" stroke="#032741"></path><path d="M630 1020L883 1020L867 839Z" fill="#01375c" stroke="#01375c"></path><path d="M1573 424L1723 225L1508 211Z" fill="#044778" stroke="#044778"></path><path d="M1784 394L1723 225L1573 424Z" fill="#00101c" stroke="#00101c"></path><path d="M1302 1020L1536 846L1283 782Z" fill="#00101c" stroke="#00101c"></path><path d="M1764 596L1784 394L1573 424Z" fill="#115795" stroke="#115795"></path><path d="M436 631L475 839L663 642Z" fill="#1a5fa4" stroke="#1a5fa4"></path><path d="M625 839L630 1020L867 839Z" fill="#044778" stroke="#044778"></path><path d="M1082 1020L1302 1020L1075 826Z" fill="#013f6a" stroke="#013f6a"></path><path d="M1764 596L1573 424L1555 637Z" fill="#094f86" stroke="#094f86"></path><path d="M475 839L630 1020L625 839Z" fill="#042034" stroke="#042034"></path><path d="M405 0L223 215L454 224Z" fill="#042034" stroke="#042034"></path><path d="M436 631L218 796L475 839Z" fill="#013f6a" stroke="#013f6a"></path><path d="M1785 820L1764 596L1555 637Z" fill="#013f6a" stroke="#013f6a"></path><path d="M223 215L211 443L454 224Z" fill="#1a5fa4" stroke="#1a5fa4"></path><path d="M211 443L232 602L463 446Z" fill="#1a5fa4" stroke="#1a5fa4"></path><path d="M475 839L411 1020L630 1020Z" fill="#032741" stroke="#032741"></path><path d="M1980 228L1787 0L1723 225Z" fill="#013f6a" stroke="#013f6a"></path><path d="M1723 225L1787 0L1570 0Z" fill="#01375c" stroke="#01375c"></path><path d="M405 0L206 0L223 215Z" fill="#00101c" stroke="#00101c"></path><path d="M223 215L0 410L211 443Z" fill="#013f6a" stroke="#013f6a"></path><path d="M1302 1020L1551 1020L1536 846Z" fill="#042034" stroke="#042034"></path><path d="M1536 846L1785 820L1555 637Z" fill="#00101c" stroke="#00101c"></path><path d="M218 796L411 1020L475 839Z" fill="#00101c" stroke="#00101c"></path><path d="M1764 596L1980 415L1784 394Z" fill="#032741" stroke="#032741"></path><path d="M1784 394L1980 228L1723 225Z" fill="#013f6a" stroke="#013f6a"></path><path d="M1753 1020L1785 820L1536 846Z" fill="#115795" stroke="#115795"></path><path d="M0 586L218 796L232 602Z" fill="#01375c" stroke="#01375c"></path><path d="M232 602L218 796L436 631Z" fill="#044778" stroke="#044778"></path><path d="M1980 608L1980 415L1764 596Z" fill="#032741" stroke="#032741"></path><path d="M1980 415L1980 228L1784 394Z" fill="#041828" stroke="#041828"></path><path d="M1980 784L1980 608L1764 596Z" fill="#115795" stroke="#115795"></path><path d="M1551 1020L1753 1020L1536 846Z" fill="#041828" stroke="#041828"></path><path d="M1785 820L1980 784L1764 596Z" fill="#00101c" stroke="#00101c"></path><path d="M0 217L0 410L223 215Z" fill="#01375c" stroke="#01375c"></path><path d="M211 443L0 586L232 602Z" fill="#115795" stroke="#115795"></path><path d="M206 0L0 217L223 215Z" fill="#042034" stroke="#042034"></path><path d="M1980 228L1980 0L1787 0Z" fill="#041828" stroke="#041828"></path><path d="M0 410L0 586L211 443Z" fill="#042034" stroke="#042034"></path><path d="M218 796L188 1020L411 1020Z" fill="#00101c" stroke="#00101c"></path><path d="M206 0L0 0L0 217Z" fill="#094f86" stroke="#094f86"></path><path d="M1980 1020L1980 784L1785 820Z" fill="#00101c" stroke="#00101c"></path><path d="M0 833L188 1020L218 796Z" fill="#042034" stroke="#042034"></path><path d="M0 586L0 833L218 796Z" fill="#094f86" stroke="#094f86"></path><path d="M1753 1020L1980 1020L1785 820Z" fill="#01375c" stroke="#01375c"></path><path d="M0 833L0 1020L188 1020Z" fill="#115795" stroke="#115795"></path></g></svg>